<svg width="300" height="35" xmlns="http://www.w3.org/2000/svg" xmlns:xlink="http://www.w3.org/1999/xlink"><defs><path d="M5.082.728a2.342 2.342 0 013.667.382l6.931 11.048c1.3 2.07-1.045 4.497-3.159 3.27L1.241 8.88a2.342 2.342 0 01-.508-3.653" id="a"/><path id="d" d="M0 .057h17.344V11H0z"/><linearGradient x1="0%" y1="50%" x2="100%" y2="50%" id="b"><stop stop-color="#E2107E" offset="0%"/><stop stop-color="#9E107E" offset="100%"/></linearGradient></defs><g fill="none" fill-rule="evenodd"><path d="M11.199 31.502l6.547-11.279c1.227-2.114-1.199-4.458-3.27-3.16L3.43 23.996a2.342 2.342 0 00-.383 3.667l4.5 4.349a2.342 2.342 0 003.653-.509" fill="#005CFF"/><path d="M22.758 31.807l-3.129-12.66c-.587-2.374-3.96-2.374-4.546 0l-3.13 12.66a2.342 2.342 0 002.273 2.904h6.259a2.342 2.342 0 002.273-2.904" fill="#00CFFF"/><path d="M31.52 23.492l-11.279-6.546c-2.114-1.228-4.458 1.198-3.159 3.27l6.931 11.047a2.342 2.342 0 003.668.383l4.348-4.501a2.342 2.342 0 00-.508-3.653" fill="#EA8711"/><path d="M31.807 11.926l-12.66 3.13c-2.374.586-2.374 3.96 0 4.546l12.66 3.129a2.342 2.342 0 002.904-2.273v-6.259a2.342 2.342 0 00-2.904-2.273" fill="#EDE60F"/><path d="M31.665 7.049l-4.5-4.349a2.342 2.342 0 00-3.653.508l-6.547 11.28c-1.227 2.114 1.2 4.458 3.27 3.16l11.048-6.932a2.342 2.342 0 00.382-3.667" fill="#9AE525"/><path d="M20.485 0h-6.259a2.342 2.342 0 00-2.273 2.904l3.13 12.66c.586 2.373 3.96 2.373 4.546 0l3.13-12.66A2.342 2.342 0 0020.484 0" fill="#23E873"/><g transform="translate(1.985 2.299)"><mask id="c" fill="#fff"><use xlink:href="#a"/></mask><path d="M15.68 12.158L8.75 1.11A2.342 2.342 0 005.081.728l-4.349 4.5a2.342 2.342 0 00.509 3.653l11.28 6.547c2.113 1.227 4.457-1.2 3.158-3.27" fill="url(#b)" mask="url(#c)"/></g><g transform="translate(0 11.8)"><mask id="e" fill="#fff"><use xlink:href="#d"/></mask><path d="M15.564 3.256L2.904.126A2.342 2.342 0 000 2.4v6.258a2.342 2.342 0 002.904 2.273l12.66-3.129c2.373-.586 2.373-3.96 0-4.546" fill="#970AEA" mask="url(#e)"/></g><path d="M97.816 24.907c-1.304.431-2.704.647-4.2.647-1.475 0-2.756-.153-3.844-.46-1.089-.306-2.03-.702-2.824-1.19-.793-.488-1.445-1.032-1.955-1.633a9.142 9.142 0 01-1.225-1.82 7.111 7.111 0 01-.63-1.751c-.113-.556-.17-1.026-.17-1.412 0-1.134.278-2.2.834-3.197a8.694 8.694 0 012.262-2.62c.953-.748 2.075-1.337 3.368-1.768 1.292-.43 2.687-.647 4.184-.647 1.496 0 2.896.216 4.2.647 1.304.43 2.45 1.02 3.436 1.768.986.749 1.763 1.622 2.33 2.62.567.998.85 2.063.85 3.197a6.466 6.466 0 01-.85 3.214c-.567 1.01-1.344 1.888-2.33 2.637-.986.748-2.132 1.338-3.436 1.768m8.436.017c1.077-1.167 1.848-2.437 2.313-3.81.465-1.371.698-2.647.698-3.826 0-1.61-.261-3.044-.783-4.303a11.602 11.602 0 00-2.058-3.316 13.018 13.018 0 00-2.908-2.433 19.32 19.32 0 00-6.803-2.585c-1.134-.192-2.166-.289-3.095-.289-.976 0-2.036.097-3.18.29-1.146.192-2.292.493-3.436.9-1.146.41-2.251.948-3.317 1.616a12.133 12.133 0 00-2.823 2.45 11.882 11.882 0 00-1.973 3.333c-.5 1.259-.748 2.704-.748 4.337 0 1.837.35 3.543 1.054 5.12a14.742 14.742 0 002.943 4.302c1.258 1.293 2.749 2.438 4.472 3.436 1.724.997 3.617 1.842 5.681 2.534a39.083 39.083 0 006.582 1.565c2.324.35 4.7.527 7.126.527.25 0 .521-.006.817-.017.294-.012.714-.051 1.258-.12.09 0 .147-.045.17-.135l.987-4.32c.045-.16-.023-.238-.204-.238-.5.045-1.06.079-1.684.102-.624.022-1.288.034-1.99.034-1.542 0-3.18-.08-4.915-.238a30.637 30.637 0 01-4.95-.85c2.586 0 4.757-.386 6.514-1.157 1.757-.771 3.175-1.74 4.252-2.909M142.393 4.906h-3.878c-.272 0-.408.136-.408.408v12.518c0 1.429-.284 2.631-.85 3.606a7.253 7.253 0 01-2.194 2.38c-.896.613-1.917 1.055-3.061 1.328a14.888 14.888 0 01-3.453.408c-1.157 0-2.308-.136-3.453-.408-1.145-.273-2.165-.715-3.06-1.327a7.242 7.242 0 01-2.195-2.381c-.567-.975-.85-2.177-.85-3.606V5.314c0-.113-.04-.209-.12-.288a.395.395 0 00-.288-.12h-3.878c-.272 0-.408.136-.408.408v12.518c0 1.86.34 3.55 1.02 5.069a11.205 11.205 0 002.891 3.911c1.247 1.089 2.75 1.934 4.507 2.534 1.757.6 3.702.902 5.834.902 2.131 0 4.07-.301 5.817-.902 1.745-.6 3.242-1.445 4.49-2.534a11.405 11.405 0 002.908-3.911c.691-1.52 1.037-3.209 1.037-5.069V5.314c0-.272-.136-.408-.408-.408M184.946 15.553c-.136 0-.204-.068-.204-.204V9.805c0-.136.068-.205.204-.205h14.422c.386 0 .76.091 1.123.273a3.8 3.8 0 01.986.714c.295.295.528.641.698 1.037.17.398.255.823.255 1.276 0 .454-.091.85-.272 1.19-.182.34-.42.619-.715.834a3.065 3.065 0 01-.986.476 4.01 4.01 0 01-1.089.153h-14.422zm14.49 4.796c-.068-.068-.057-.102.034-.102a8.658 8.658 0 003.045-.595 7.372 7.372 0 002.432-1.548 7.163 7.163 0 001.598-2.313c.386-.884.579-1.848.579-2.891 0-1.02-.199-2.012-.595-2.976a8.548 8.548 0 00-1.633-2.569 7.848 7.848 0 00-2.45-1.785c-.94-.442-1.967-.663-3.078-.663h-19.116c-.136 0-.204.067-.204.203v24.355c0 .136.068.204.204.204h4.286c.136 0 .204-.068.204-.204v-9.014c0-.136.068-.204.204-.204h8.334c.045 0 .09.023.136.068l8.572 9.32c.045.046.09.069.136.069h5.51c.068 0 .119-.035.153-.103.034-.067.028-.124-.017-.17l-8.333-9.082zM248.067 24.703V5.213c0-.204-.102-.306-.306-.306h-4.082c-.204 0-.306.102-.306.306v24.184c0 .204.102.307.306.307h21.41l2.344-4.695h-19.06c-.204 0-.306-.102-.306-.306M299.638 29.33L287.46 5.041c-.046-.09-.125-.135-.238-.135h-5.102c-.069 0-.148.045-.239.135L269.738 29.33a.288.288 0 000 .272c.045.091.124.137.238.137h4.625l10.081-20.13 10.114 20.13h4.603c.09 0 .165-.046.221-.137a.264.264 0 00.018-.272M65.94 5.042c-.046-.09-.125-.135-.238-.135h-5.103c-.068 0-.148.045-.238.135L48.218 29.33a.288.288 0 000 .272c.045.091.124.136.238.136h4.625l10.081-20.13 10.114 20.13h4.603c.09 0 .165-.045.221-.136a.264.264 0 00.017-.272L65.94 5.042zM163.672 5.042c-.046-.09-.125-.135-.238-.135h-5.102c-.069 0-.148.045-.238.135L145.95 29.33a.288.288 0 000 .272c.045.091.124.136.238.136h4.625l10.081-20.13 10.114 20.13h4.603c.09 0 .165-.045.222-.136a.264.264 0 00.017-.272L163.672 5.042zM212.211 9.648h.015v15.299h-.015v4.808h25.843v-4.808h-7.212v-.005h-13.548a.333.333 0 01-.27-.12.416.416 0 01-.104-.289v-4.659c0-.076.018-.133.054-.173h21.08v-4.808h-21.053c-.054-.044-.08-.12-.08-.225v-4.66c0-.202.082-.322.246-.36h20.887V4.84h-25.843v4.808z" fill="#5712A6"/></g></svg>