<svg width="18" height="32" xmlns="http://www.w3.org/2000/svg"><path d="M4.8 18.062H.842c-.64 0-.84-.24-.84-.839v-4.835c0-.64.24-.84.84-.84h3.956V8.033c0-1.598.28-3.117 1.079-4.515.84-1.439 2.038-2.398 3.557-2.958A8.89 8.89 0 0112.512.04h3.916c.56 0 .799.24.799.8v4.555c0 .56-.24.799-.8.799-1.078 0-2.157 0-3.236.04-1.08 0-1.639.52-1.639 1.638-.04 1.2 0 2.358 0 3.597h4.636c.64 0 .88.24.88.879v4.835c0 .64-.2.84-.88.84h-4.636V31.05c0 .679-.2.919-.919.919H5.638c-.6 0-.839-.24-.839-.84V18.063z" fill="#5712A6" fill-rule="nonzero"/></svg>