<svg width="30" height="32" xmlns="http://www.w3.org/2000/svg"><path d="M8.922 31.969c1.137 0 1.447-.449 1.447-1 0-.495-.017-1.804-.026-3.539-5.89 1.255-7.133-2.792-7.133-2.792-.964-2.401-2.356-3.044-2.356-3.044-1.919-1.29.148-1.263.148-1.263 2.127.144 3.243 2.144 3.243 2.144 1.889 3.182 4.958 2.262 6.168 1.731.191-1.347.737-2.263 1.342-2.783-4.703-.52-9.647-2.31-9.647-10.283 0-2.271.821-4.128 2.18-5.584-.238-.526-.953-2.642.185-5.508 0 0 1.774-.558 5.824 2.134a20.686 20.686 0 015.294-.703c1.8.01 3.6.24 5.295.703C24.909-.51 26.683.048 26.683.048c1.138 2.866.423 4.982.212 5.508 1.35 1.456 2.17 3.313 2.17 5.584 0 7.994-4.95 9.754-9.662 10.265.741.625 1.43 1.901 1.43 3.851 0 2.785-.027 5.023-.027 5.699 0 .545.236.988 1.456.988l-13.34.026z" fill="#5712A6" fill-rule="nonzero"/></svg>