<svg width="32" height="32" xmlns="http://www.w3.org/2000/svg"><g fill="#5712A6" fill-rule="nonzero"><path d="M23.977 0H7.993C3.597 0 0 3.597 0 7.992v15.985c0 4.395 3.597 7.993 7.993 7.993h15.984c4.395 0 7.992-3.598 7.992-7.993V7.992C31.97 3.597 28.372 0 23.977 0zm5.328 23.977a5.334 5.334 0 01-5.328 5.328H7.993a5.335 5.335 0 01-5.328-5.328V7.992a5.334 5.334 0 015.328-5.328h15.984a5.333 5.333 0 015.328 5.328v15.985z"/><circle cx="24.644" cy="7.326" r="1.998"/><path d="M15.985 7.992a7.993 7.993 0 10.002 15.984 7.993 7.993 0 00-.002-15.984zm0 13.321a5.328 5.328 0 110-10.657 5.328 5.328 0 010 10.657z"/></g></svg>