<svg width="13" height="16" xmlns="http://www.w3.org/2000/svg"><g fill="#5712A6" fill-rule="nonzero"><path d="M5.999 0c-2.5 0-4.5 2-4.5 4.499v2C.65 6.498 0 7.148 0 7.997v6.498c0 .85.65 1.5 1.5 1.5h8.997c.85 0 1.5-.65 1.5-1.5V7.998c0-.85-.65-1.5-1.5-1.5v-2C10.497 2 8.497 0 6 0zm4.998 7.998v6.498c0 .3-.2.5-.5.5H1.5c-.3 0-.5-.2-.5-.5V7.998c0-.3.2-.5.5-.5H10.498c.3 0 .5.2.5.5zM2.5 6.498v-2C2.5 2.55 4.05 1 6 1s3.499 1.55 3.499 3.499v2H2.499z"/><path d="M5.999 8.998c-.85 0-1.5.65-1.5 1.5 0 .65.4 1.2 1 1.4v1.099c0 .3.2.5.5.5s.5-.2.5-.5v-1.1c.6-.2 1-.75 1-1.4 0-.85-.65-1.5-1.5-1.5zm0 2c-.3 0-.5-.2-.5-.5s.2-.5.5-.5.5.2.5.5-.2.5-.5.5z"/></g></svg>