<?xml version="1.0" encoding="UTF-8"?>
<svg width="300px" height="35px" viewBox="0 0 300 35" version="1.1" xmlns="http://www.w3.org/2000/svg" xmlns:xlink="http://www.w3.org/1999/xlink">
    <title>aquarela-logo</title>
    <defs>
        <path d="M5.08167896,0.727595009 C6.13854226,-0.366137266 7.94129325,-0.178105502 8.74943279,1.11018151 L8.74943279,1.11018151 L15.6802326,12.1579694 C16.9792967,14.2287294 14.6352808,16.6547079 12.5211288,15.4276801 L12.5211288,15.4276801 L1.24163358,8.88074305 C-0.0737379467,8.1172717 -0.323737947,6.3220363 0.732983551,5.22830403 L0.732983551,5.22830403" id="path-1"></path>
        <linearGradient x1="0.000348614772%" y1="49.9997586%" x2="99.999954%" y2="49.9997586%" id="linearGradient-3">
            <stop stop-color="#E2107E" offset="0%"></stop>
            <stop stop-color="#9E107E" offset="100%"></stop>
        </linearGradient>
        <polygon id="path-4" points="0 0.0567813275 17.3441648 0.0567813275 17.3441648 11.0008849 0 11.0008849"></polygon>
    </defs>
    <g id="Welcome" stroke="none" stroke-width="1" fill="none" fill-rule="evenodd">
        <g id="login-page" transform="translate(-570.000000, -318.000000)">
            <g id="aquarela-logo" transform="translate(570.000000, 318.000000)">
                <path d="M11.1990357,31.5024532 L17.7459728,20.222958 C18.9731424,18.108806 16.5470221,15.7647901 14.4762621,17.0638542 L3.428616,23.994654 C2.14032898,24.8029353 1.95215542,26.6055445 3.04588769,27.662266 L7.54673851,32.0109614 C8.64047079,33.0676829 10.4355644,32.8176829 11.1990357,31.5024532" id="Fill-1" fill="#005CFF"></path>
                <path d="M22.7581963,31.8069767 L19.629013,19.1461713 C19.042371,16.7729438 15.6690017,16.7729438 15.0825014,19.1461713 L11.9531764,31.8069767 C11.5881736,33.2832955 12.7055871,34.7105502 14.2264322,34.7105502 L20.4849404,34.7105502 C22.0057856,34.7105502 23.1230573,33.2832955 22.7581963,31.8069767" id="Fill-3" fill="#00CFFF"></path>
                <path d="M31.5208026,23.4924844 L20.2413074,16.9455474 C18.1271554,15.7183778 15.7831395,18.144498 17.0822036,20.2152581 L24.0130034,31.2629041 C24.8211429,32.551333 26.6238939,32.7393647 27.6806154,31.6456324 L32.0293108,27.1447816 C33.0861741,26.0510493 32.8361741,24.2559558 31.5208026,23.4924844" id="Fill-5" fill="#EA8711"></path>
                <path d="M31.8069767,11.9259217 L19.1461713,15.0551049 C16.7730856,15.641747 16.7730856,19.0151163 19.1461713,19.6017584 L31.8069767,22.7309416 C33.2834373,23.0959444 34.7105502,21.9785309 34.7105502,20.4576858 L34.7105502,14.1991775 C34.7105502,12.6784742 33.2834373,11.5610607 31.8069767,11.9259217" id="Fill-7" fill="#EDE60F"></path>
                <path d="M31.6652439,7.04865286 L27.1643931,2.69995746 C26.0706608,1.64323596 24.2755672,1.89323596 23.5120959,3.20846568 L16.9651588,14.4879609 C15.7379892,16.6021129 18.1641095,18.9461288 20.2348695,17.6470647 L31.2825156,10.7162649 C32.5708026,9.90812535 32.7589762,8.10537436 31.6652439,7.04865286" id="Fill-9" fill="#9AE525"></path>
                <path d="M20.4848979,1.41803744e-05 L14.2263897,1.41803744e-05 C12.7056863,1.41803744e-05 11.5882728,1.42698525 11.9531339,2.90358763 L15.0824589,15.5643931 C15.6689592,17.9373369 19.0424702,17.9373369 19.6289705,15.5643931 L22.7581537,2.90358763 C23.1230147,1.42698525 22.0057431,1.41803744e-05 20.4848979,1.41803744e-05" id="Fill-11" fill="#23E873"></path>
                <g id="Group-15" transform="translate(1.985252, 2.298780)">
                    <mask id="mask-2" fill="white">
                        <use xlink:href="#path-1"></use>
                    </mask>
                    <g id="Clip-14"></g>
                    <path d="M15.6802326,12.1579694 L8.74943279,1.11018151 C7.94129325,-0.178105502 6.13854226,-0.366137266 5.08167896,0.727595009 L0.732983551,5.22830403 C-0.323737947,6.3220363 -0.0737379467,8.1172717 1.24163358,8.88074305 L12.5211288,15.4276801 C14.6352808,16.6547079 16.9792967,14.2287294 15.6802326,12.1579694" id="Fill-13" fill="url(#linearGradient-3)" mask="url(#mask-2)"></path>
                </g>
                <g id="Group-18" transform="translate(0.000000, 11.799631)">
                    <mask id="mask-5" fill="white">
                        <use xlink:href="#path-4"></use>
                    </mask>
                    <g id="Clip-17"></g>
                    <path d="M15.5643505,3.25553035 L2.90354509,0.126347136 C1.42708452,-0.238655701 -2.83607487e-05,0.878757799 -2.83607487e-05,2.39960295 L-2.83607487e-05,8.65811117 C-2.83607487e-05,10.1788145 1.42708452,11.296228 2.90354509,10.931367 L15.5643505,7.80218378 C17.9374362,7.21554169 17.9374362,3.84217243 15.5643505,3.25553035" id="Fill-16" fill="#970AEA" mask="url(#mask-5)"></path>
                </g>
                <path d="M97.8164776,24.9073313 C96.5121668,25.3384146 95.1122802,25.5538145 93.6155417,25.5538145 C92.14135,25.5538145 90.860295,25.4005247 89.7719512,25.0943704 C88.6834657,24.7883579 87.7420306,24.3918746 86.9484969,23.903928 C86.1546795,23.4164067 85.5029495,22.8721639 84.9925978,22.2711997 C84.4825298,21.6706608 84.0744186,21.0637408 83.7682643,20.4512904 C83.4619682,19.8389818 83.2520987,19.2556012 83.1389393,18.6995888 C83.0250709,18.1442853 82.9687748,17.6737805 82.9687748,17.2879325 C82.9687748,16.1542116 83.2462847,15.0885564 83.8022972,14.0906835 C84.3576007,13.0929524 85.111713,12.2195831 86.0642087,11.4714265 C87.0167045,10.7229864 88.1392229,10.13365 89.431764,9.70256665 C90.7241634,9.27205048 92.1188032,9.05636699 93.6155417,9.05636699 C95.1122802,9.05636699 96.5121668,9.27205048 97.8164776,9.70256665 C99.1202212,10.13365 100.26557,10.7229864 101.252099,11.4714265 C102.238486,12.2195831 103.015003,13.0929524 103.582076,14.0906835 C104.148582,15.0885564 104.432473,16.1542116 104.432473,17.2879325 C104.432473,18.4220788 104.148582,19.4936897 103.582076,20.5024816 C103.015003,21.5116988 102.238486,22.3903148 101.252099,23.1386132 C100.26557,23.8869115 99.1202212,24.4768151 97.8164776,24.9073313 M106.25224,24.9243477 C107.329098,23.7567357 108.100227,22.487025 108.565201,21.1146483 C109.02975,19.7429807 109.262592,18.4673142 109.262592,17.2879325 C109.262592,15.6780346 109.001673,14.2436897 108.480261,12.9850397 C107.958423,11.7265315 107.272802,10.6208877 106.422263,9.66853375 C105.571866,8.716038 104.602496,7.90562961 103.514152,7.23645774 C102.425525,6.56771129 101.303148,6.01779637 100.146597,5.58657119 C98.9899036,5.15619682 97.8445547,4.84437039 96.7109756,4.6513755 C95.5766875,4.45894782 94.545207,4.36223766 93.6155417,4.36223766 C92.6403573,4.36223766 91.5800908,4.45894782 90.4351673,4.6513755 C89.2898185,4.84437039 88.1444697,5.14471072 86.999688,5.55268009 C85.8543392,5.96107487 84.7488372,6.49978729 83.6831821,7.16825014 C82.6168179,7.83756381 81.6763755,8.65406977 80.8600113,9.61762621 C80.0435054,10.5817499 79.385536,11.6926404 78.8870959,12.9511486 C78.3879467,14.209515 78.1385139,15.6552042 78.1385139,17.2879325 C78.1385139,19.1247164 78.4899036,20.8314663 79.1931083,22.4071894 C79.8957459,23.9834799 80.876886,25.4176829 82.135536,26.7100822 C83.3940442,28.0027652 84.884827,29.1479722 86.6084515,30.1457033 C88.3315088,31.1434345 90.225156,31.9880176 92.2891095,32.679878 C94.3522121,33.3713131 96.5461997,33.8927255 98.871072,34.2445406 C101.195235,34.5959302 103.570306,34.7717669 105.997136,34.7717669 C106.246285,34.7717669 106.518406,34.7658111 106.8135,34.7547504 C107.107884,34.7429807 107.527765,34.7037011 108.07215,34.6356353 C108.162337,34.6356353 108.2192,34.5899745 108.242031,34.4997873 L109.228559,30.1797362 C109.273795,30.0207742 109.205729,29.941506 109.024504,29.941506 C108.525496,29.9867413 107.964237,30.0207742 107.340726,30.0436047 C106.71679,30.0660096 106.053432,30.0777794 105.350794,30.0777794 C103.808537,30.0777794 102.17042,29.997802 100.435593,29.8395491 C98.7009075,29.6811543 97.0511628,29.3972632 95.4863585,28.9892938 C98.0715825,28.9892938 100.242598,28.6037294 102.000397,27.8327425 C103.757487,27.0620391 105.174957,26.0925269 106.25224,24.9243477" id="Fill-19" fill="#5712A6"></path>
                <path d="M142.393123,4.90649461 L138.515499,4.90649461 C138.243236,4.90649461 138.107246,5.0423426 138.107246,5.31446398 L138.107246,17.8321894 C138.107246,19.2608622 137.823355,20.4630743 137.256849,21.4378332 C136.689776,22.4131594 135.958494,23.2066931 135.062862,23.8187181 C134.166804,24.4310267 133.146384,24.8733125 132.001602,25.1455757 C130.856254,25.4176971 129.705516,25.5536869 128.548965,25.5536869 C127.392413,25.5536869 126.241393,25.4176971 125.096469,25.1455757 C123.95112,24.8733125 122.930701,24.4310267 122.03521,23.8187181 C121.13901,23.2066931 120.407587,22.4131594 119.841081,21.4378332 C119.274007,20.4630743 118.990683,19.2608622 118.990683,17.8321894 L118.990683,5.31446398 C118.990683,5.20130459 118.950978,5.10501985 118.87171,5.02560976 C118.791875,4.94634146 118.695732,4.90649461 118.582572,4.90649461 L114.704807,4.90649461 C114.432686,4.90649461 114.296554,5.0423426 114.296554,5.31446398 L114.296554,17.8321894 C114.296554,19.6920874 114.636883,21.3815372 115.317116,22.9005389 C115.997348,24.419966 116.960905,25.7238514 118.208352,26.8121951 C119.455233,27.9006807 120.957785,28.7456892 122.715301,29.3463698 C124.472391,29.9469087 126.417229,30.2478162 128.548965,30.2478162 C130.680275,30.2478162 132.619158,29.9469087 134.365613,29.3463698 C136.1115,28.7456892 137.608239,27.9006807 138.855686,26.8121951 C140.102567,25.7238514 141.071937,24.419966 141.763939,22.9005389 C142.455374,21.3815372 142.801375,19.6920874 142.801375,17.8321894 L142.801375,5.31446398 C142.801375,5.0423426 142.665244,4.90649461 142.393123,4.90649461" id="Fill-21" fill="#5712A6"></path>
                <path d="M184.945874,15.5532757 C184.809884,15.5532757 184.741818,15.4852099 184.741818,15.3492201 L184.741818,9.8045519 C184.741818,9.66856211 184.809884,9.60049631 184.945874,9.60049631 L199.368307,9.60049631 C199.753588,9.60049631 200.127808,9.69139251 200.490825,9.8726177 C200.853417,10.0545519 201.18226,10.2923568 201.477212,10.587025 C201.771739,10.8819767 202.00458,11.2279779 202.174745,11.6244611 C202.344484,12.0215116 202.429708,12.4466393 202.429708,12.899844 C202.429708,13.3537578 202.338812,13.7503829 202.157587,14.0907119 C201.975794,14.4306154 201.737847,14.7086926 201.443321,14.9239507 C201.148369,15.1396341 200.819101,15.2981707 200.456792,15.4002694 C200.093775,15.5022263 199.730757,15.5532757 199.368307,15.5532757 L184.945874,15.5532757 Z M199.436514,20.3493619 C199.368307,20.2812961 199.379368,20.247405 199.470406,20.247405 C200.558891,20.2248582 201.573497,20.0261912 202.51479,19.6519711 C203.455374,19.2780346 204.266492,18.7622944 204.946866,18.104325 C205.627099,17.4469229 206.159855,16.6756523 206.54542,15.7912223 C206.930842,14.9069342 207.123837,13.943236 207.123837,12.899844 C207.123837,11.8795661 206.92517,10.8877907 206.528545,9.92366704 C206.131636,8.96011061 205.587252,8.1037578 204.895817,7.35545944 C204.203815,6.60716109 203.38745,6.01201078 202.446866,5.5698667 C201.505289,5.12758083 200.479197,4.90650879 199.368307,4.90650879 L180.251744,4.90650879 C180.115754,4.90650879 180.047689,4.97443279 180.047689,5.11042258 L180.047689,29.4653573 C180.047689,29.6013471 180.115754,29.6694129 180.251744,29.6694129 L184.537762,29.6694129 C184.673752,29.6694129 184.741818,29.6013471 184.741818,29.4653573 L184.741818,20.4513188 C184.741818,20.315329 184.809884,20.247405 184.945874,20.247405 L193.279821,20.247405 C193.324773,20.247405 193.370009,20.2702354 193.415669,20.315329 L201.987564,29.6355218 C202.032799,29.6811826 202.077751,29.7035876 202.123695,29.7035876 L207.634189,29.7035876 C207.702113,29.7035876 207.75302,29.6694129 207.787195,29.6013471 C207.821086,29.5335649 207.815272,29.4771271 207.770037,29.4314663 L199.436514,20.3493619 Z" id="Fill-23" fill="#5712A6"></path>
                <path d="M248.066818,24.7033607 L248.066818,5.21257799 C248.066818,5.0085224 247.965003,4.90656551 247.760805,4.90656551 L243.679126,4.90656551 C243.474787,4.90656551 243.372972,5.0085224 243.372972,5.21257799 L243.372972,29.3974901 C243.372972,29.6014039 243.474787,29.7035026 243.679126,29.7035026 L265.088514,29.7035026 L267.43253,25.0093732 L248.37283,25.0093732 C248.169058,25.0093732 248.066818,24.9071327 248.066818,24.7033607" id="Fill-25" fill="#5712A6"></path>
                <path d="M299.637535,29.3294243 L287.460139,5.0424135 C287.414336,4.95194271 287.335068,4.90656551 287.221767,4.90656551 L282.119526,4.90656551 C282.051319,4.90656551 281.971625,4.95194271 281.881438,5.0424135 L269.737791,29.3294243 C269.692272,29.4200369 269.692272,29.5109331 269.737791,29.6014039 C269.783026,29.6924419 269.862153,29.7375355 269.976163,29.7375355 L274.600808,29.7375355 L284.682345,9.60792683 L294.796356,29.7375355 L299.399163,29.7375355 C299.489492,29.7375355 299.563656,29.6924419 299.620377,29.6014039 C299.676531,29.5109331 299.682345,29.4200369 299.637535,29.3294243" id="Fill-27" fill="#5712A6"></path>
                <path d="M65.9400028,5.04235678 C65.8942002,4.95188599 65.8149319,4.90650879 65.7016307,4.90650879 L60.5993902,4.90650879 C60.5311826,4.90650879 60.4514889,4.95188599 60.3613018,5.04235678 L48.2176546,29.3293676 C48.1721356,29.4199801 48.1721356,29.5110182 48.2176546,29.6013471 C48.26289,29.6923851 48.3420164,29.7374787 48.4560267,29.7374787 L53.0806721,29.7374787 L63.1622093,9.60787011 L73.2762195,29.7374787 L77.8790272,29.7374787 C77.9693562,29.7374787 78.0435196,29.6923851 78.1002411,29.6013471 C78.1563953,29.5110182 78.1622093,29.4199801 78.1173993,29.3293676 L65.9400028,5.04235678 Z" id="Fill-29" fill="#5712A6"></path>
                <path d="M163.672263,5.04235678 C163.626461,4.95188599 163.547192,4.90650879 163.433891,4.90650879 L158.331651,4.90650879 C158.263443,4.90650879 158.183749,4.95188599 158.093562,5.04235678 L145.949915,29.3293676 C145.904396,29.4199801 145.904396,29.5110182 145.949915,29.6013471 C145.99515,29.6923851 146.074277,29.7374787 146.188287,29.7374787 L150.812933,29.7374787 L160.89447,9.60787011 L171.00848,29.7374787 L175.611288,29.7374787 C175.701617,29.7374787 175.77578,29.6923851 175.832501,29.6013471 C175.888656,29.5110182 175.89447,29.4199801 175.84966,29.3293676 L163.672263,5.04235678 Z" id="Fill-31" fill="#5712A6"></path>
                <path d="M212.210961,9.64819909 L212.225851,9.64819909 L212.225851,24.9465542 L212.210961,24.9465542 L212.210961,29.7545519 L238.053985,29.7545519 L238.053985,24.9465542 L230.841988,24.9465542 L230.841988,24.9421583 L217.2942,24.9421583 C217.180474,24.9421583 217.090854,24.9028786 217.023213,24.8219087 C216.95302,24.7432076 216.920406,24.6470647 216.920406,24.5334799 L216.920406,19.8739507 C216.920406,19.7982275 216.938415,19.7409387 216.974149,19.7013755 L238.053985,19.7013755 L238.053985,14.893236 L217.001092,14.893236 C216.947206,14.8488514 216.920406,14.7738372 216.920406,14.6681934 L216.920406,10.0086642 C216.920406,9.80631027 217.002652,9.6862025 217.167144,9.64819909 L238.053985,9.64819909 L238.053985,4.84005956 L212.210961,4.84005956 L212.210961,9.64819909 Z" id="Fill-33" fill="#5712A6"></path>
            </g>
        </g>
    </g>
</svg>