<?xml version="1.0" encoding="UTF-8"?>
<svg width="18px" height="32px" viewBox="0 0 18 32" version="1.1" xmlns="http://www.w3.org/2000/svg" xmlns:xlink="http://www.w3.org/1999/xlink">
    <title>facebook</title>
    <g id="Welcome" stroke="none" stroke-width="1" fill="none" fill-rule="evenodd">
        <g id="login-page" transform="translate(-41.000000, -30.000000)" fill="#5712A6" fill-rule="nonzero">
            <g id="Social-Icons" transform="translate(34.000000, 30.000000)">
                <g id="facebook" transform="translate(7.000000, 0.000000)">
                    <path d="M4.79906341,18.062361 C4.67918049,18.062361 2.0417561,18.062361 0.842926829,18.062361 C0.20355122,18.062361 0.00374634146,17.8225951 0.00374634146,17.2231805 C0.00374634146,15.6247415 0.00374634146,13.9863415 0.00374634146,12.3879024 C0.00374634146,11.7485268 0.243512195,11.548722 0.842926829,11.548722 L4.79906341,11.548722 C4.79906341,11.428839 4.79906341,9.11110244 4.79906341,8.0321561 C4.79906341,6.43371707 5.07879024,4.9152 5.87800976,3.51656585 C6.71719024,2.07797073 7.91601951,1.11890732 9.43453659,0.559453659 C10.433561,0.199804878 11.4325854,0.0399609756 12.5115317,0.0399609756 L16.4277073,0.0399609756 C16.987161,0.0399609756 17.2269268,0.279726829 17.2269268,0.839180488 L17.2269268,5.39473171 C17.2269268,5.95418537 16.987161,6.19395122 16.4277073,6.19395122 C15.348761,6.19395122 14.2698146,6.19395122 13.1908683,6.2339122 C12.111922,6.2339122 11.5524683,6.75340488 11.5524683,7.8723122 C11.5125073,9.07114146 11.5524683,10.2300098 11.5524683,11.4688 L16.1879415,11.4688 C16.8273171,11.4688 17.0670829,11.7085659 17.0670829,12.3479415 L17.0670829,17.1832195 C17.0670829,17.8225951 16.867278,18.0224 16.1879415,18.0224 C14.7493463,18.0224 11.6723512,18.0224 11.5524683,18.0224 L11.5524683,31.049678 C11.5524683,31.7290146 11.3526634,31.9687805 10.6333659,31.9687805 C8.95500488,31.9687805 7.31660488,31.9687805 5.6382439,31.9687805 C5.03882927,31.9687805 4.79906341,31.7290146 4.79906341,31.1296 C4.79906341,26.9336976 4.79906341,18.1822439 4.79906341,18.062361 Z" id="Icon_11_"></path>
                </g>
            </g>
        </g>
    </g>
</svg>