<?xml version="1.0" encoding="UTF-8"?>
<svg width="30px" height="32px" viewBox="0 0 30 32" version="1.1" xmlns="http://www.w3.org/2000/svg" xmlns:xlink="http://www.w3.org/1999/xlink">
    <title>github</title>
    <g id="Welcome" stroke="none" stroke-width="1" fill="none" fill-rule="evenodd">
        <g id="login-page" transform="translate(-35.000000, -138.000000)" fill="#5712A6" fill-rule="nonzero">
            <g id="Social-Icons" transform="translate(34.000000, 30.000000)">
                <g id="github" transform="translate(1.000000, 108.000000)">
                    <path d="M8.922112,31.9687805 C10.0590018,31.9687805 10.3690989,31.5204183 10.3690989,30.9681577 C10.3690989,30.4738404 10.3515161,29.1647188 10.3427247,27.4300129 C4.45207727,28.6847875 3.20969054,24.6383391 3.20969054,24.6383391 C2.24623141,22.2366845 0.853591415,21.594112 0.853591415,21.594112 C-1.06453541,20.3041717 1.00184663,20.330546 1.00184663,20.330546 C3.12856976,20.4752047 4.24547902,22.4748519 4.24547902,22.4748519 C6.13363512,25.6565448 9.20263805,24.7374423 10.4134556,24.2059614 C10.6040695,22.8592765 11.1495368,21.9433709 11.754546,21.423079 C7.05153873,20.9023875 2.10836605,19.112935 2.10836605,11.1399212 C2.10836605,8.86853932 2.92916449,7.012352 4.28783766,5.55617405 C4.04967024,5.03028761 3.33476839,2.91435395 4.47325659,0.0483527805 C4.47325659,0.0483527805 6.24672468,-0.509502439 10.2967696,2.18186927 C11.9911149,1.71952078 13.7909573,1.49014478 15.5911992,1.47935532 C17.3914412,1.48974517 19.1912835,1.71952078 20.8856289,2.18186927 C24.9092995,-0.509502439 26.6827676,0.0483527805 26.6827676,0.0483527805 C27.8208562,2.91435395 27.106354,5.03028761 26.8945608,5.55617405 C28.2444425,7.01195239 29.065241,8.86853932 29.065241,11.1399212 C29.065241,19.1341143 24.1152749,20.8935961 19.4030767,21.4054962 C20.1443528,22.0300862 20.8324808,23.3060402 20.8324808,25.2561358 C20.8324808,28.0410162 20.8061065,30.2788308 20.8061065,30.9545709 C20.8061065,31.5000382 21.0418763,31.9428059 22.2618849,31.9428059 L8.922112,31.9687805 Z" id="Icon_83_"></path>
                </g>
            </g>
        </g>
    </g>
</svg>