<?xml version="1.0" encoding="UTF-8"?>
<svg width="32px" height="32px" viewBox="0 0 32 32" version="1.1" xmlns="http://www.w3.org/2000/svg" xmlns:xlink="http://www.w3.org/1999/xlink">
    <title>instagram</title>
    <g id="Welcome" stroke="none" stroke-width="1" fill="none" fill-rule="evenodd">
        <g id="login-page" transform="translate(-34.000000, -84.000000)" fill="#5712A6" fill-rule="nonzero">
            <g id="Social-Icons" transform="translate(34.000000, 30.000000)">
                <g id="instagram" transform="translate(0.000000, 54.000000)">
                    <path d="M23.9769756,0 L7.99258537,0 C3.59726829,0 0.000390243902,3.59687805 0.000390243902,7.99219512 L0.000390243902,23.9773659 C0.000390243902,28.3715122 3.59726829,31.969561 7.99258537,31.969561 L23.9769756,31.969561 C28.3722927,31.969561 31.9691707,28.3715122 31.9691707,23.9773659 L31.9691707,7.99219512 C31.9691707,3.59687805 28.3722927,0 23.9769756,0 Z M29.3049756,23.9773659 C29.3049756,26.9144976 26.9157463,29.3053659 23.9769756,29.3053659 L7.99258537,29.3053659 C5.05506341,29.3053659 2.66458537,26.9144976 2.66458537,23.9773659 L2.66458537,7.99219512 C2.66458537,5.05428293 5.05506341,2.66419512 7.99258537,2.66419512 L23.9769756,2.66419512 C26.9157463,2.66419512 29.3049756,5.05428293 29.3049756,7.99219512 L29.3049756,23.9773659 Z" id="Shape"></path>
                    <circle id="Oval" cx="24.6442927" cy="7.32604878" r="1.99804878"></circle>
                    <path d="M15.9847805,7.99219512 C11.5698732,7.99219512 7.99258537,11.5698732 7.99258537,15.9843902 C7.99258537,20.3972683 11.5698732,23.9773659 15.9847805,23.9773659 C20.398439,23.9773659 23.9769756,20.3972683 23.9769756,15.9843902 C23.9769756,11.5698732 20.398439,7.99219512 15.9847805,7.99219512 Z M15.9847805,21.3131707 C13.0424195,21.3131707 10.6567805,18.9275317 10.6567805,15.9843902 C10.6567805,13.0412488 13.0424195,10.6563902 15.9847805,10.6563902 C18.9271415,10.6563902 21.3127805,13.0412488 21.3127805,15.9843902 C21.3127805,18.9275317 18.9271415,21.3131707 15.9847805,21.3131707 Z" id="Shape"></path>
                </g>
            </g>
        </g>
    </g>
</svg>