<?xml version="1.0" encoding="UTF-8"?>
<svg width="13px" height="16px" viewBox="0 0 13 16" version="1.1" xmlns="http://www.w3.org/2000/svg" xmlns:xlink="http://www.w3.org/1999/xlink">
    <title>padlock</title>
    <g id="Welcome" stroke="none" stroke-width="1" fill="none" fill-rule="evenodd">
        <g id="login-page" transform="translate(-854.000000, -530.000000)" fill="#5712A6" fill-rule="nonzero">
            <g id="form-group" transform="translate(571.000000, 505.000000)">
                <g id="padlock" transform="translate(283.000000, 25.000000)">
                    <path d="M5.99853551,0 C3.49914572,0 1.49963388,1.99951184 1.49963388,4.49890164 L1.49963388,6.49841347 C0.649841347,6.49841347 0,7.14825482 0,7.99804735 L0,14.4964608 C0,15.3462534 0.649841347,15.9960947 1.49963388,15.9960947 L10.4974371,15.9960947 C11.3472297,15.9960947 11.997071,15.3462534 11.997071,14.4964608 L11.997071,7.99804735 C11.997071,7.14825482 11.3472297,6.49841347 10.4974371,6.49841347 L10.4974371,4.49890164 C10.4974371,1.99951184 8.49792531,0 5.99853551,0 Z M10.9973151,7.99804735 L10.9973151,14.4964608 C10.9973151,14.7963876 10.7973639,14.9963388 10.4974371,14.9963388 L1.49963388,14.9963388 C1.1997071,14.9963388 0.999755919,14.7963876 0.999755919,14.4964608 L0.999755919,7.99804735 C0.999755919,7.69812058 1.1997071,7.49816939 1.49963388,7.49816939 L1.99951184,7.49816939 L9.99755919,7.49816939 L10.4974371,7.49816939 C10.7973639,7.49816939 10.9973151,7.69812058 10.9973151,7.99804735 Z M2.4993898,6.49841347 L2.4993898,4.49890164 C2.4993898,2.54937759 4.04901147,0.999755919 5.99853551,0.999755919 C7.94805956,0.999755919 9.49768123,2.54937759 9.49768123,4.49890164 L9.49768123,6.49841347 L2.4993898,6.49841347 Z" id="Shape"></path>
                    <path d="M5.99853551,8.99780327 C5.14874298,8.99780327 4.49890164,9.64764462 4.49890164,10.4974371 C4.49890164,11.1472785 4.898804,11.6971443 5.49865755,11.8970954 L5.49865755,12.9968269 C5.49865755,13.2967537 5.69860874,13.4967049 5.99853551,13.4967049 C6.29846229,13.4967049 6.49841347,13.2967537 6.49841347,12.9968269 L6.49841347,11.8970954 C7.09826702,11.6971443 7.49816939,11.1472785 7.49816939,10.4974371 C7.49816939,9.64764462 6.84832804,8.99780327 5.99853551,8.99780327 Z M5.99853551,10.9973151 C5.69860874,10.9973151 5.49865755,10.7973639 5.49865755,10.4974371 C5.49865755,10.1975104 5.69860874,9.99755919 5.99853551,9.99755919 C6.29846229,9.99755919 6.49841347,10.1975104 6.49841347,10.4974371 C6.49841347,10.7973639 6.29846229,10.9973151 5.99853551,10.9973151 Z" id="Shape"></path>
                </g>
            </g>
        </g>
    </g>
</svg>