<?xml version="1.0" encoding="UTF-8"?>
<svg width="13px" height="16px" viewBox="0 0 13 16" version="1.1" xmlns="http://www.w3.org/2000/svg" xmlns:xlink="http://www.w3.org/1999/xlink">
    <title>user-profile</title>
    <g id="Welcome" stroke="none" stroke-width="1" fill="none" fill-rule="evenodd">
        <g id="login-page" transform="translate(-854.000000, -463.000000)" fill="#5712A6" fill-rule="nonzero">
            <g id="form-group" transform="translate(571.000000, 434.000000)">
                <g id="user-profile" transform="translate(283.000000, 29.000000)">
                    <path d="M12.7875122,15.9843902 L11.9882927,15.9843902 L11.9882927,12.3879024 C11.9882927,11.2844106 11.0937358,10.3898537 9.9902439,10.3898537 L2.79726829,10.3898537 C1.69377642,10.3898537 0.799219512,11.2844106 0.799219512,12.3879024 L0.799219512,15.9843902 L0,15.9843902 L0,12.3879024 C0,10.8430138 1.25237967,9.59063415 2.79726829,9.59063415 L9.9902439,9.59063415 C11.5351325,9.59063415 12.7875122,10.8430138 12.7875122,12.3879024 L12.7875122,15.9843902 Z" id="Path"></path>
                    <path d="M6.3937561,8.79141463 C3.96607398,8.79141463 1.99804878,6.82338943 1.99804878,4.39570732 C1.99804878,1.9680252 3.96607398,0 6.3937561,0 C8.82143821,0 10.7894634,1.9680252 10.7894634,4.39570732 C10.7894634,5.56152138 10.3263456,6.67958674 9.50199055,7.50394177 C8.67763552,8.3282968 7.55957016,8.79141463 6.3937561,8.79141463 Z M6.3937561,0.799219512 C4.40747073,0.799219512 2.79726829,2.40942195 2.79726829,4.39570732 C2.79726829,6.38199268 4.40747073,7.99219512 6.3937561,7.99219512 C8.38004147,7.99219512 9.9902439,6.38199268 9.9902439,4.39570732 C9.9902439,2.40942195 8.38004147,0.799219512 6.3937561,0.799219512 Z" id="Shape"></path>
                </g>
            </g>
        </g>
    </g>
</svg>